<svg width="137" height="136" viewBox="0 0 137 136" fill="none" xmlns="http://www.w3.org/2000/svg">
<path d="M55.0589 133.499C43.9699 133.499 33.166 129.949 24.199 123.357C15.232 116.765 8.56327 107.471 5.15051 96.8105C8.21225 100.043 11.89 102.615 15.9622 104.372C20.0343 106.129 24.4164 107.035 28.8443 107.034H88.9749L72.0226 89.9051C70.6986 88.7036 69.6307 87.2421 68.8841 85.6097C68.1374 83.9774 67.7278 82.2085 67.6801 80.4109C67.6323 78.6133 67.9476 76.8248 68.6065 75.1543C69.2655 73.4839 70.2543 71.9667 71.5127 70.6951C72.7711 69.4236 74.2727 68.4244 75.9259 67.7586C77.5791 67.0928 79.3491 66.7743 81.1282 66.8225C82.9072 66.8707 84.6578 67.2847 86.2733 68.0391C87.8888 68.7935 89.3352 69.8725 90.5244 71.2104L129.841 110.937C131.675 112.787 132.926 115.145 133.434 117.714C133.942 120.282 133.684 122.945 132.694 125.365C131.703 127.786 130.025 129.855 127.87 131.311C125.715 132.767 123.182 133.545 120.59 133.546L55.0589 133.499Z" fill="#3D51FE"/>
<path d="M28.8327 100.386H37.7136C34.9247 97.9001 32.6906 94.8436 31.1595 91.4192C29.6285 87.9947 28.8353 84.2805 28.8327 80.5228V54.0113C28.8327 46.9831 31.5959 40.2428 36.5142 35.2731C41.4326 30.3034 48.1033 27.5115 55.0589 27.5115H81.2736C84.9926 27.5133 88.6687 28.3144 92.0579 29.8615C95.4471 31.4086 98.472 33.6664 100.932 36.485V27.5115C100.935 24.032 100.259 20.5861 98.9439 17.3704C97.6286 14.1548 95.6992 11.2326 93.2658 8.77058C90.8325 6.30861 87.943 4.35518 84.7623 3.02188C81.5816 1.68858 78.1721 1.00154 74.7286 1.00001H55.0705C48.18 0.996934 41.3564 2.36601 34.9898 5.02899C28.6232 7.69197 22.8385 11.5966 17.9661 16.5198C13.0938 21.443 9.22944 27.2881 6.59396 33.7211C3.95847 40.1541 2.60353 47.0489 2.60657 54.0113V73.8745C2.60964 80.9017 5.37373 87.6402 10.2914 92.6092C15.2091 97.5782 21.8781 100.371 28.8327 100.374V100.386Z" fill="#9FEB36"/>
<path d="M97.3816 3.5703C107.94 7.01478 117.145 13.7527 123.676 22.8158C130.206 31.8788 133.725 42.8004 133.726 54.0111V105.422L107.5 78.9218V27.5113C107.5 23.0372 106.604 18.6094 104.865 14.4948C103.126 10.3801 100.58 6.66398 97.3816 3.5703Z" fill="#3D51FE"/>
</svg>
